<?xml version="1.0" encoding="UTF-8"?>
<svg width="1440px" height="180px" viewBox="0 0 1440 180" version="1.1" xmlns="http://www.w3.org/2000/svg" xmlns:xlink="http://www.w3.org/1999/xlink">
    <title>Group 68</title>
    <g id="Design" stroke="none" stroke-width="1" fill="none" fill-rule="evenodd">
        <g id="Group-68">
            <path d="M0,25.4625803 C63.865,23.3155836 7.917,27.0022918 76.37,16.6880428 C114.435,10.9527697 124.214,27.8784205 200.692,26.5863714 C242.674,25.8768034 246.007,39.5559641 284.501,36.4298215 C319.06,33.6223586 357.238,41.8858888 390.049,30.0725933 C406.176,14.885721 439.946,34.0219118 445.656,31.8999474 C505.335,9.72233847 631.202,33.1900709 671.434,26.056843 C688.461,23.0385316 713.285,24.6916227 732.599,26.7692993 C773.157,31.9991136 897.714,19.4069301 937.637,20.434215 C963.993,21.1120113 1001.02,31.8729896 1021.639,28.7439586 C1048.965,25.5937464 1080.182,19.3173917 1209.071,1.05925512 C1252.363,-5.07268285 1281.498,17.470782 1326.201,16.2971547 C1326.201,16.2971547 1363.338,14.3792994 1370.233,11.9155485 C1399.855,1.33075873 1404.139,14.0635079 1440,20.434215 L1440,160 L0,160 L0,25.4625803 Z" id="Fill-1-Copy" fill="#FCDDB2"></path>
            <path d="M0,45.4625803 C63.865,43.3155836 7.917,47.0022918 76.37,36.6880428 C114.435,30.9527697 124.214,47.8784205 200.692,46.5863714 C242.674,45.8768034 246.007,59.5559641 284.501,56.4298215 C319.06,53.6223586 357.238,61.8858888 390.049,50.0725933 C406.176,34.885721 439.946,54.0219118 445.656,51.8999474 C505.335,29.7223385 631.202,53.1900709 671.434,46.056843 C688.461,43.0385316 713.285,44.6916227 732.599,46.7692993 C773.157,51.9991136 897.714,39.4069301 937.637,40.434215 C963.993,41.1120113 1001.02,51.8729896 1021.639,48.7439586 C1048.965,45.5937464 1080.182,39.3173917 1209.071,21.0592551 C1252.363,14.9273171 1281.498,37.470782 1326.201,36.2971547 C1326.201,36.2971547 1363.338,34.3792994 1370.233,31.9155485 C1399.855,21.3307587 1404.139,34.0635079 1440,40.434215 L1440,180 L0,180 L0,45.4625803 Z" id="Fill-1" fill="#FFE9CC"></path>
            <path d="M1117.87586,69.9267208 C1117.37097,69.4361379 1116.00147,68.0727868 1115.24376,69.9473945 C1114.27072,72.3547709 1115.79661,72.8665863 1116.55509,72.9744251 C1117.31892,73.0828227 1120.57761,72.5522892 1117.87586,69.9267208" id="Fill-5" fill="#EAC99B" transform="translate(1116.929193, 70.987437) rotate(6.000000) translate(-1116.929193, -70.987437) "></path>
            <path d="M1274.26508,76.4751459 C1274.26508,76.4751459 1272.57152,75.3706872 1271.51848,76.4751459 C1270.4658,77.5792709 1271.61019,78.9383223 1272.89196,78.9810325 C1274.17373,79.023409 1274.72291,78.6410194 1274.99768,78.3864266 C1275.27209,78.1315002 1275.02178,76.8245018 1274.26508,76.4751459" id="Fill-7" fill="#EAC99B" transform="translate(1273.105640, 77.484275) rotate(6.000000) translate(-1273.105640, -77.484275) "></path>
            <path d="M1251.54936,82.1315811 C1251.54936,82.1315811 1249.8555,81.0273784 1248.80293,82.1315811 C1247.75004,83.2357837 1248.89422,84.5953198 1250.17615,84.6375186 C1251.45774,84.680329 1252.00709,84.2977875 1252.28193,84.0430656 C1252.55644,83.7883437 1252.30599,82.4814032 1251.54936,82.1315811" id="Fill-9" fill="#EAC99B" transform="translate(1250.389930, 83.140824) rotate(6.000000) translate(-1250.389930, -83.140824) "></path>
            <path d="M1169.58375,72.7828898 C1169.58375,72.7828898 1167.04297,70.9425521 1165.46412,72.7828898 C1163.88478,74.6232274 1165.60105,76.8891209 1167.52394,76.9594523 C1169.44633,77.030803 1170.27036,76.3932337 1170.68262,75.9686973 C1171.09438,75.5441608 1170.7187,73.3659267 1169.58375,72.7828898" id="Fill-9-Copy" fill="#EAC99B" transform="translate(1167.844613, 74.464962) rotate(141.000000) translate(-1167.844613, -74.464962) "></path>
            <path d="M1210.36201,77.802617 C1210.36201,77.802617 1208.66816,76.6984143 1207.61559,77.802617 C1206.5627,78.9068196 1207.70688,80.2663557 1208.9888,80.3085545 C1210.2704,80.3513649 1210.81975,79.9688234 1211.09459,79.7141015 C1211.3691,79.4593796 1211.11865,78.1524391 1210.36201,77.802617" id="Fill-9-Copy-2" fill="#EAC99B" transform="translate(1209.202588, 78.811860) rotate(225.000000) translate(-1209.202588, -78.811860) "></path>
            <path d="M1153.70985,64.383149 C1153.70985,64.383149 1152.60091,64.3625113 1151.86244,65.3767365 C1151.12379,66.3907633 1152.60749,67.5264336 1153.272,67.3682772 C1153.93633,67.2101208 1154.85752,65.9022048 1154.62427,65.225327 C1154.39121,64.5486477 1153.70985,64.383149 1153.70985,64.383149" id="Fill-11" fill="#EAC99B" transform="translate(1153.161223, 65.883117) rotate(6.000000) translate(-1153.161223, -65.883117) "></path>
            <path d="M1333.40314,79.2147277 C1333.40314,79.2147277 1331.55489,79.1803315 1330.32412,80.8707069 C1329.09303,82.5607516 1331.56586,84.4535354 1332.67339,84.1899414 C1333.78059,83.9263473 1335.31591,81.7464874 1334.92716,80.6183578 C1334.53873,79.4905589 1333.40314,79.2147277 1333.40314,79.2147277" id="Fill-11-Copy" fill="#EAC99B" transform="translate(1332.488749, 81.714675) rotate(118.000000) translate(-1332.488749, -81.714675) "></path>
            <path d="M1402.94666,57.3029197 C1402.44178,56.8123368 1401.07228,55.4489857 1400.31456,57.3235935 C1399.34153,59.7309698 1400.86741,60.2427852 1401.62589,60.3506241 C1402.38973,60.4590217 1405.64841,59.9284881 1402.94666,57.3029197" id="Fill-5" fill="#EAC99B" transform="translate(1402.000000, 58.363636) scale(-1, 1) translate(-1402.000000, -58.363636) "></path>
            <path d="M1247.15944,47.4908705 C1247.15944,47.4908705 1245.46588,46.3864119 1244.41284,47.4908705 C1243.36016,48.5949955 1244.50455,49.9540469 1245.78632,49.9967571 C1247.06809,50.0391336 1247.61727,49.656744 1247.89204,49.4021513 C1248.16645,49.1472248 1247.91614,47.8402265 1247.15944,47.4908705" id="Fill-7" fill="#EAC99B" transform="translate(1246.000000, 48.500000) scale(-1, 1) translate(-1246.000000, -48.500000) "></path>
            <path d="M1269.15943,55.4907567 C1269.15943,55.4907567 1267.46557,54.3865541 1266.413,55.4907567 C1265.36011,56.5949593 1266.50429,57.9544954 1267.78622,57.9966942 C1269.06781,58.0395046 1269.61716,57.6569631 1269.892,57.4022412 C1270.16651,57.1475193 1269.91606,55.8405789 1269.15943,55.4907567" id="Fill-9" fill="#EAC99B" transform="translate(1268.000000, 56.500000) scale(-1, 1) translate(-1268.000000, -56.500000) "></path>
            <path d="M1352.73914,54.8179279 C1352.73914,54.8179279 1350.19835,52.9775902 1348.61951,54.8179279 C1347.04017,56.6582655 1348.75643,58.924159 1350.67932,58.9944904 C1352.60172,59.0658411 1353.42574,58.4282719 1353.838,58.0037354 C1354.24977,57.5791989 1353.87409,55.4009648 1352.73914,54.8179279" id="Fill-9-Copy" fill="#EAC99B" transform="translate(1351.000000, 56.500000) scale(-1, 1) rotate(135.000000) translate(-1351.000000, -56.500000) "></path>
            <path d="M1310.57364,55.4907567 C1310.57364,55.4907567 1308.87978,54.3865541 1307.82722,55.4907567 C1306.77432,56.5949593 1307.9185,57.9544954 1309.20043,57.9966942 C1310.48203,58.0395046 1311.03138,57.6569631 1311.30622,57.4022412 C1311.58073,57.1475193 1311.33027,55.8405789 1310.57364,55.4907567" id="Fill-9-Copy-2" fill="#EAC99B" transform="translate(1309.414214, 56.500000) scale(-1, 1) rotate(219.000000) translate(-1309.414214, -56.500000) "></path>
            <path d="M1367.04863,48.0000316 C1367.04863,48.0000316 1365.93968,47.9793938 1365.20122,48.9936191 C1364.46257,50.0076459 1365.94626,51.1433162 1366.61078,50.9851597 C1367.27511,50.8270033 1368.19629,49.5190873 1367.96305,48.8422096 C1367.72999,48.1655303 1367.04863,48.0000316 1367.04863,48.0000316" id="Fill-11" fill="#EAC99B" transform="translate(1366.500000, 49.500000) scale(-1, 1) translate(-1366.500000, -49.500000) "></path>
            <path d="M1187.41439,44.0000526 C1187.41439,44.0000526 1185.56614,43.9656564 1184.33537,45.6560318 C1183.10428,47.3460764 1185.57711,49.2388603 1186.68464,48.9752662 C1187.79184,48.7116722 1189.32716,46.5318122 1188.93841,45.4036826 C1188.54998,44.2758838 1187.41439,44.0000526 1187.41439,44.0000526" id="Fill-11-Copy" fill="#EAC99B" transform="translate(1186.500000, 46.500000) scale(-1, 1) rotate(112.000000) translate(-1186.500000, -46.500000) "></path>
            <path d="M358.946664,72.3029197 C358.441776,71.8123368 357.072278,70.4489857 356.314564,72.3235935 C355.341526,74.7309698 356.867414,75.2427852 357.625894,75.3506241 C358.389731,75.4590217 361.648412,74.9284881 358.946664,72.3029197" id="Fill-5" fill="#EAC99B" transform="translate(358.000000, 73.363636) scale(-1, 1) translate(-358.000000, -73.363636) "></path>
            <path d="M203.159444,62.4908705 C203.159444,62.4908705 201.465876,61.3864119 200.412836,62.4908705 C199.360156,63.5949955 200.504546,64.9540469 201.78632,64.9967571 C203.068094,65.0391336 203.617272,64.656744 203.892041,64.4021513 C204.16645,64.1472248 203.916137,62.8402265 203.159444,62.4908705" id="Fill-7" fill="#EAC99B" transform="translate(202.000000, 63.500000) scale(-1, 1) translate(-202.000000, -63.500000) "></path>
            <path d="M225.159426,70.4907567 C225.159426,70.4907567 223.465569,69.3865541 222.413004,70.4907567 C221.36011,71.5949593 222.504288,72.9544954 223.786215,72.9966942 C225.067813,73.0395046 225.617163,72.6569631 225.892003,72.4022412 C226.166514,72.1475193 225.91606,70.8405789 225.159426,70.4907567" id="Fill-9" fill="#EAC99B" transform="translate(224.000000, 71.500000) scale(-1, 1) translate(-224.000000, -71.500000) "></path>
            <path d="M308.739139,69.8179279 C308.739139,69.8179279 306.198353,67.9775902 304.619507,69.8179279 C303.040166,71.6582655 304.756432,73.924159 306.679323,73.9944904 C308.601719,74.0658411 309.425745,73.4282719 309.838005,73.0037354 C310.24977,72.5791989 309.87409,70.4009648 308.739139,69.8179279" id="Fill-9-Copy" fill="#EAC99B" transform="translate(307.000000, 71.500000) scale(-1, 1) rotate(135.000000) translate(-307.000000, -71.500000) "></path>
            <path d="M266.57364,70.4907567 C266.57364,70.4907567 264.879782,69.3865541 263.827218,70.4907567 C262.774324,71.5949593 263.918502,72.9544954 265.200429,72.9966942 C266.482027,73.0395046 267.031377,72.6569631 267.306217,72.4022412 C267.580727,72.1475193 267.330273,70.8405789 266.57364,70.4907567" id="Fill-9-Copy-2" fill="#EAC99B" transform="translate(265.414214, 71.500000) scale(-1, 1) rotate(219.000000) translate(-265.414214, -71.500000) "></path>
            <path d="M323.048632,63.0000316 C323.048632,63.0000316 321.939682,62.9793938 321.201221,63.9936191 C320.462567,65.0076459 321.946264,66.1433162 322.610781,65.9851597 C323.275106,65.8270033 324.196295,64.5190873 323.963045,63.8422096 C323.72999,63.1655303 323.048632,63.0000316 323.048632,63.0000316" id="Fill-11" fill="#EAC99B" transform="translate(322.500000, 64.500000) scale(-1, 1) translate(-322.500000, -64.500000) "></path>
            <path d="M143.414386,59.0000526 C143.414386,59.0000526 141.566137,58.9656564 140.335369,60.6560318 C139.104278,62.3460764 141.577106,64.2388603 142.684636,63.9752662 C143.791843,63.7116722 145.327158,61.5318122 144.938409,60.4036826 C144.549983,59.2758838 143.414386,59.0000526 143.414386,59.0000526" id="Fill-11-Copy" fill="#EAC99B" transform="translate(142.500000, 61.500000) scale(-1, 1) rotate(112.000000) translate(-142.500000, -61.500000) "></path>
            <path d="M46,23 L70,23 C70,23 65.7471588,14.0980286 57.9319849,14.0011072 C51.0924994,13.9167634 47.0316195,18.6666517 46,23" id="Fill-1" fill="#E0B781"></path>
            <path d="M1312,16 L1336,16 C1336,16 1331.74716,7.09802858 1323.93198,7.00110718 C1317.0925,6.91676337 1313.03162,11.6666517 1312,16" id="Fill-1-Copy-10" fill="#E0B781"></path>
            <path d="M279,38 L296,38 C296,38 292.987187,32.064944 287.452113,32.0007462 C282.607317,31.944205 279.730574,35.1110996 279,38" id="Fill-3" fill="#E0B781"></path>
            <path d="M1143,12 L1160,12 C1160,12 1156.98719,6.06494399 1151.45211,6.00074621 C1146.60732,5.94420504 1143.73057,9.11109956 1143,12" id="Fill-3-Copy-2" fill="#E0B781"></path>
            <path d="M226.946664,90.3029197 C226.441776,89.8123368 225.072278,88.4489857 224.314564,90.3235935 C223.341526,92.7309698 224.867414,93.2427852 225.625894,93.3506241 C226.389731,93.4590217 229.648412,92.9284881 226.946664,90.3029197" id="Fill-5" fill="#EAC99B" transform="translate(226.000000, 91.363636) scale(-1, 1) translate(-226.000000, -91.363636) "></path>
            <path d="M71.1594442,80.4908705 C71.1594442,80.4908705 69.4658764,79.3864119 68.4128361,80.4908705 C67.3601555,81.5949955 68.5045456,82.9540469 69.78632,82.9967571 C71.0680944,83.0391336 71.6172722,82.656744 71.8920409,82.4021513 C72.16645,82.1472248 71.9161371,80.8402265 71.1594442,80.4908705" id="Fill-7" fill="#EAC99B" transform="translate(70.000000, 81.500000) scale(-1, 1) translate(-70.000000, -81.500000) "></path>
            <path d="M93.1594263,88.4907567 C93.1594263,88.4907567 91.4655687,87.3865541 90.4130044,88.4907567 C89.3601104,89.5949593 90.5042881,90.9544954 91.7862153,90.9966942 C93.067813,91.0395046 93.6171632,90.6569631 93.8920032,90.4022412 C94.1665135,90.1475193 93.9160599,88.8405789 93.1594263,88.4907567" id="Fill-9" fill="#EAC99B" transform="translate(92.000000, 89.500000) scale(-1, 1) translate(-92.000000, -89.500000) "></path>
            <path d="M176.739139,87.8179279 C176.739139,87.8179279 174.198353,85.9775902 172.619507,87.8179279 C171.040166,89.6582655 172.756432,91.924159 174.679323,91.9944904 C176.601719,92.0658411 177.425745,91.4282719 177.838005,91.0037354 C178.24977,90.5791989 177.87409,88.4009648 176.739139,87.8179279" id="Fill-9-Copy" fill="#EAC99B" transform="translate(175.000000, 89.500000) scale(-1, 1) rotate(135.000000) translate(-175.000000, -89.500000) "></path>
            <path d="M134.57364,88.4907567 C134.57364,88.4907567 132.879782,87.3865541 131.827218,88.4907567 C130.774324,89.5949593 131.918502,90.9544954 133.200429,90.9966942 C134.482027,91.0395046 135.031377,90.6569631 135.306217,90.4022412 C135.580727,90.1475193 135.330273,88.8405789 134.57364,88.4907567" id="Fill-9-Copy-2" fill="#EAC99B" transform="translate(133.414214, 89.500000) scale(-1, 1) rotate(219.000000) translate(-133.414214, -89.500000) "></path>
            <path d="M191.048632,81.0000316 C191.048632,81.0000316 189.939682,80.9793938 189.201221,81.9936191 C188.462567,83.0076459 189.946264,84.1433162 190.610781,83.9851597 C191.275106,83.8270033 192.196295,82.5190873 191.963045,81.8422096 C191.72999,81.1655303 191.048632,81.0000316 191.048632,81.0000316" id="Fill-11" fill="#EAC99B" transform="translate(190.500000, 82.500000) scale(-1, 1) translate(-190.500000, -82.500000) "></path>
            <path d="M76.414386,52.0000526 C76.414386,52.0000526 74.566137,51.9656564 73.335369,53.6560318 C72.1042784,55.3460764 74.5771059,57.2388603 75.6846358,56.9752662 C76.791843,56.7116722 78.3271576,54.5318122 77.9384091,53.4036826 C77.5499832,52.2758838 76.414386,52.0000526 76.414386,52.0000526" id="Fill-11-Copy" fill="#EAC99B" transform="translate(75.500000, 54.500000) scale(-1, 1) rotate(112.000000) translate(-75.500000, -54.500000) "></path>
        </g>
    </g>
</svg>