<?xml version="1.0" encoding="UTF-8"?>
<svg width="1440px" height="180px" viewBox="0 0 1440 180" version="1.1" xmlns="http://www.w3.org/2000/svg" xmlns:xlink="http://www.w3.org/1999/xlink">
    <title>Group 65</title>
    <g id="Design" stroke="none" stroke-width="1" fill="none" fill-rule="evenodd">
        <g id="Group-65">
            <path d="M1440,38.7044275 C1337.88892,35.6481448 1242.79286,69.4685048 1116.84833,48.7089778 C1055.30008,51.9341064 1033.40728,61.4389408 993.08329,48.7089778 C952.759295,35.9790147 932.602295,67.9079587 899.813067,57.395165 C883.696261,43.8806651 877.762382,43.0671345 872.057344,41.1774241 C812.419763,21.4429114 809.455822,42.7789025 768.034589,40.7749225 C761.20933,29.2047096 739.598339,28.1182967 720.295745,29.9687803 C679.765893,34.6214249 641.392544,24.8266529 603.955544,21.4565555 C537.95938,15.5128362 487.312555,43.0006195 435.500539,35.9994809 C408.191505,33.19732 307.737272,18.0506423 231.895945,2.88520406 C170.547552,-9.38085893 107.497342,21.4326783 107.497342,21.4326783 C52.8383031,8.66178294 35.8371106,33.0335905 0,38.7044275 L0,160 L1440,160 L1440,38.7044275 Z" id="Fill-1-Copy-2" fill="#C2DEDC"></path>
            <path d="M1440,58.7044275 C1337.88892,55.6481448 1242.79286,89.4685048 1116.84833,68.7089778 C1055.30008,71.9341064 1033.40728,81.4389408 993.08329,68.7089778 C952.759295,55.9790147 932.602295,87.9079587 899.813067,77.395165 C883.696261,63.8806651 877.762382,63.0671345 872.057344,61.1774241 C812.419763,41.4429114 809.455822,62.7789025 768.034589,60.7749225 C761.20933,49.2047096 739.598339,48.1182967 720.295745,49.9687803 C679.765893,54.6214249 641.392544,44.8266529 603.955544,41.4565555 C537.95938,35.5128362 487.312555,63.0006195 435.500539,55.9994809 C408.191505,53.19732 307.737272,38.0506423 231.895945,22.8852041 C170.547552,10.6191411 107.497342,41.4326783 107.497342,41.4326783 C52.8383031,28.6617829 35.8371106,53.0335905 0,58.7044275 L0,180 L1440,180 L1440,58.7044275 Z" id="Fill-1" fill="#CFE5E3"></path>
            <path d="M1424.94666,95.3029197 C1424.44178,94.8123368 1423.07228,93.4489857 1422.31456,95.3235935 C1421.34153,97.7309698 1422.86741,98.2427852 1423.62589,98.3506241 C1424.38973,98.4590217 1427.64841,97.9284881 1424.94666,95.3029197" id="Fill-5" fill="#9DC3C0" transform="translate(1424.000000, 96.363636) scale(-1, 1) translate(-1424.000000, -96.363636) "></path>
            <path d="M1269.15944,85.4908705 C1269.15944,85.4908705 1267.46588,84.3864119 1266.41284,85.4908705 C1265.36016,86.5949955 1266.50455,87.9540469 1267.78632,87.9967571 C1269.06809,88.0391336 1269.61727,87.656744 1269.89204,87.4021513 C1270.16645,87.1472248 1269.91614,85.8402265 1269.15944,85.4908705" id="Fill-7" fill="#9DC3C0" transform="translate(1268.000000, 86.500000) scale(-1, 1) translate(-1268.000000, -86.500000) "></path>
            <path d="M1291.15943,93.4907567 C1291.15943,93.4907567 1289.46557,92.3865541 1288.413,93.4907567 C1287.36011,94.5949593 1288.50429,95.9544954 1289.78622,95.9966942 C1291.06781,96.0395046 1291.61716,95.6569631 1291.892,95.4022412 C1292.16651,95.1475193 1291.91606,93.8405789 1291.15943,93.4907567" id="Fill-9" fill="#9DC3C0" transform="translate(1290.000000, 94.500000) scale(-1, 1) translate(-1290.000000, -94.500000) "></path>
            <path d="M1374.73914,92.8179279 C1374.73914,92.8179279 1372.19835,90.9775902 1370.61951,92.8179279 C1369.04017,94.6582655 1370.75643,96.924159 1372.67932,96.9944904 C1374.60172,97.0658411 1375.42574,96.4282719 1375.838,96.0037354 C1376.24977,95.5791989 1375.87409,93.4009648 1374.73914,92.8179279" id="Fill-9-Copy" fill="#9DC3C0" transform="translate(1373.000000, 94.500000) scale(-1, 1) rotate(135.000000) translate(-1373.000000, -94.500000) "></path>
            <path d="M1332.57364,93.4907567 C1332.57364,93.4907567 1330.87978,92.3865541 1329.82722,93.4907567 C1328.77432,94.5949593 1329.9185,95.9544954 1331.20043,95.9966942 C1332.48203,96.0395046 1333.03138,95.6569631 1333.30622,95.4022412 C1333.58073,95.1475193 1333.33027,93.8405789 1332.57364,93.4907567" id="Fill-9-Copy-2" fill="#9DC3C0" transform="translate(1331.414214, 94.500000) scale(-1, 1) rotate(219.000000) translate(-1331.414214, -94.500000) "></path>
            <path d="M1389.04863,86.0000316 C1389.04863,86.0000316 1387.93968,85.9793938 1387.20122,86.9936191 C1386.46257,88.0076459 1387.94626,89.1433162 1388.61078,88.9851597 C1389.27511,88.8270033 1390.19629,87.5190873 1389.96305,86.8422096 C1389.72999,86.1655303 1389.04863,86.0000316 1389.04863,86.0000316" id="Fill-11" fill="#9DC3C0" transform="translate(1388.500000, 87.500000) scale(-1, 1) translate(-1388.500000, -87.500000) "></path>
            <path d="M1209.41439,82.0000526 C1209.41439,82.0000526 1207.56614,81.9656564 1206.33537,83.6560318 C1205.10428,85.3460764 1207.57711,87.2388603 1208.68464,86.9752662 C1209.79184,86.7116722 1211.32716,84.5318122 1210.93841,83.4036826 C1210.54998,82.2758838 1209.41439,82.0000526 1209.41439,82.0000526" id="Fill-11-Copy" fill="#9DC3C0" transform="translate(1208.500000, 84.500000) scale(-1, 1) rotate(112.000000) translate(-1208.500000, -84.500000) "></path>
            <path d="M346.946664,58.3029197 C346.441776,57.8123368 345.072278,56.4489857 344.314564,58.3235935 C343.341526,60.7309698 344.867414,61.2427852 345.625894,61.3506241 C346.389731,61.4590217 349.648412,60.9284881 346.946664,58.3029197" id="Fill-5" fill="#9DC3C0" transform="translate(346.000000, 59.363636) scale(-1, 1) translate(-346.000000, -59.363636) "></path>
            <path d="M191.159444,48.4908705 C191.159444,48.4908705 189.465876,47.3864119 188.412836,48.4908705 C187.360156,49.5949955 188.504546,50.9540469 189.78632,50.9967571 C191.068094,51.0391336 191.617272,50.656744 191.892041,50.4021513 C192.16645,50.1472248 191.916137,48.8402265 191.159444,48.4908705" id="Fill-7" fill="#9DC3C0" transform="translate(190.000000, 49.500000) scale(-1, 1) translate(-190.000000, -49.500000) "></path>
            <path d="M213.159426,56.4907567 C213.159426,56.4907567 211.465569,55.3865541 210.413004,56.4907567 C209.36011,57.5949593 210.504288,58.9544954 211.786215,58.9966942 C213.067813,59.0395046 213.617163,58.6569631 213.892003,58.4022412 C214.166514,58.1475193 213.91606,56.8405789 213.159426,56.4907567" id="Fill-9" fill="#9DC3C0" transform="translate(212.000000, 57.500000) scale(-1, 1) translate(-212.000000, -57.500000) "></path>
            <path d="M296.739139,55.8179279 C296.739139,55.8179279 294.198353,53.9775902 292.619507,55.8179279 C291.040166,57.6582655 292.756432,59.924159 294.679323,59.9944904 C296.601719,60.0658411 297.425745,59.4282719 297.838005,59.0037354 C298.24977,58.5791989 297.87409,56.4009648 296.739139,55.8179279" id="Fill-9-Copy" fill="#9DC3C0" transform="translate(295.000000, 57.500000) scale(-1, 1) rotate(135.000000) translate(-295.000000, -57.500000) "></path>
            <path d="M254.57364,56.4907567 C254.57364,56.4907567 252.879782,55.3865541 251.827218,56.4907567 C250.774324,57.5949593 251.918502,58.9544954 253.200429,58.9966942 C254.482027,59.0395046 255.031377,58.6569631 255.306217,58.4022412 C255.580727,58.1475193 255.330273,56.8405789 254.57364,56.4907567" id="Fill-9-Copy-2" fill="#9DC3C0" transform="translate(253.414214, 57.500000) scale(-1, 1) rotate(219.000000) translate(-253.414214, -57.500000) "></path>
            <path d="M311.048632,49.0000316 C311.048632,49.0000316 309.939682,48.9793938 309.201221,49.9936191 C308.462567,51.0076459 309.946264,52.1433162 310.610781,51.9851597 C311.275106,51.8270033 312.196295,50.5190873 311.963045,49.8422096 C311.72999,49.1655303 311.048632,49.0000316 311.048632,49.0000316" id="Fill-11" fill="#9DC3C0" transform="translate(310.500000, 50.500000) scale(-1, 1) translate(-310.500000, -50.500000) "></path>
            <path d="M131.414386,45.0000526 C131.414386,45.0000526 129.566137,44.9656564 128.335369,46.6560318 C127.104278,48.3460764 129.577106,50.2388603 130.684636,49.9752662 C131.791843,49.7116722 133.327158,47.5318122 132.938409,46.4036826 C132.549983,45.2758838 131.414386,45.0000526 131.414386,45.0000526" id="Fill-11-Copy" fill="#9DC3C0" transform="translate(130.500000, 47.500000) scale(-1, 1) rotate(112.000000) translate(-130.500000, -47.500000) "></path>
            <path d="M1290.12627,104.159726 C1289.62138,103.669143 1288.25188,102.305792 1287.49417,104.1804 C1286.52113,106.587776 1288.04702,107.099591 1288.8055,107.20743 C1289.56934,107.315828 1292.82802,106.785294 1290.12627,104.159726" id="Fill-5" fill="#9DC3C0" transform="translate(1289.179604, 105.220443) rotate(-176.000000) translate(-1289.179604, -105.220443) "></path>
            <path d="M1134.031,103.168912 C1134.031,103.168912 1132.33744,102.064454 1131.2844,103.168912 C1130.23172,104.273037 1131.37611,105.632089 1132.65788,105.674799 C1133.93965,105.717175 1134.48883,105.334786 1134.7636,105.080193 C1135.03801,104.825267 1134.7877,103.518268 1134.031,103.168912" id="Fill-7" fill="#9DC3C0" transform="translate(1132.871560, 104.178042) rotate(-176.000000) translate(-1132.871560, -104.178042) "></path>
            <path d="M1156.53545,96.7229284 C1156.53545,96.7229284 1154.84159,95.6187258 1153.78903,96.7229284 C1152.73613,97.827131 1153.88031,99.1866671 1155.16224,99.2288659 C1156.44383,99.2716763 1156.99318,98.8891348 1157.26802,98.6344129 C1157.54253,98.379691 1157.29208,97.0727506 1156.53545,96.7229284" id="Fill-9" fill="#9DC3C0" transform="translate(1155.376021, 97.732172) rotate(-176.000000) translate(-1155.376021, -97.732172) "></path>
            <path d="M1239.91298,101.839887 C1239.91298,101.839887 1237.37219,99.9995492 1235.79334,101.839887 C1234.214,103.680225 1235.93027,105.946118 1237.85316,106.016449 C1239.77556,106.0878 1240.59958,105.450231 1241.01184,105.025694 C1241.42361,104.601158 1241.04793,102.422924 1239.91298,101.839887" id="Fill-9-Copy" fill="#9DC3C0" transform="translate(1238.173837, 103.521959) rotate(-41.000000) translate(-1238.173837, -103.521959) "></path>
            <path d="M1197.84878,99.6118379 C1197.84878,99.6118379 1196.15492,98.5076353 1195.10236,99.6118379 C1194.04946,100.716041 1195.19364,102.075577 1196.47557,102.117775 C1197.75716,102.160586 1198.30651,101.778044 1198.58135,101.523322 C1198.85587,101.268601 1198.60541,99.9616601 1197.84878,99.6118379" id="Fill-9-Copy-2" fill="#9DC3C0" transform="translate(1196.689351, 100.621081) rotate(43.000000) translate(-1196.689351, -100.621081) "></path>
            <path d="M1253.69642,110.086164 C1253.69642,110.086164 1252.58747,110.065527 1251.84901,111.079752 C1251.11035,112.093779 1252.59405,113.229449 1253.25857,113.071292 C1253.92289,112.913136 1254.84408,111.60522 1254.61083,110.928342 C1254.37777,110.251663 1253.69642,110.086164 1253.69642,110.086164" id="Fill-11" fill="#9DC3C0" transform="translate(1253.147784, 111.586133) rotate(-176.000000) translate(-1253.147784, -111.586133) "></path>
            <path d="M1112.29137,83.5227122 C1112.29137,83.5227122 1110.44312,83.488316 1109.21236,85.1786914 C1107.98126,86.868736 1110.45409,88.7615199 1111.56162,88.4979258 C1112.66883,88.2343318 1114.20414,86.0544718 1113.8154,84.9263422 C1113.42697,83.7985433 1112.29137,83.5227122 1112.29137,83.5227122" id="Fill-11-Copy" fill="#9DC3C0" transform="translate(1111.376986, 86.022660) rotate(-64.000000) translate(-1111.376986, -86.022660) "></path>
            <path d="M77.1594442,66.4908705 C77.1594442,66.4908705 75.4658764,65.3864119 74.4128361,66.4908705 C73.3601555,67.5949955 74.5045456,68.9540469 75.78632,68.9967571 C77.0680944,69.0391336 77.6172722,68.656744 77.8920409,68.4021513 C78.16645,68.1472248 77.9161371,66.8402265 77.1594442,66.4908705" id="Fill-7" fill="#9DC3C0" transform="translate(76.000000, 67.500000) scale(-1, 1) translate(-76.000000, -67.500000) "></path>
            <path d="M99.1594263,74.4907567 C99.1594263,74.4907567 97.4655687,73.3865541 96.4130044,74.4907567 C95.3601104,75.5949593 96.5042881,76.9544954 97.7862153,76.9966942 C99.067813,77.0395046 99.6171632,76.6569631 99.8920032,76.4022412 C100.166514,76.1475193 99.9160599,74.8405789 99.1594263,74.4907567" id="Fill-9" fill="#9DC3C0" transform="translate(98.000000, 75.500000) scale(-1, 1) translate(-98.000000, -75.500000) "></path>
            <path d="M140.57364,74.4907567 C140.57364,74.4907567 138.879782,73.3865541 137.827218,74.4907567 C136.774324,75.5949593 137.918502,76.9544954 139.200429,76.9966942 C140.482027,77.0395046 141.031377,76.6569631 141.306217,76.4022412 C141.580727,76.1475193 141.330273,74.8405789 140.57364,74.4907567" id="Fill-9-Copy-2" fill="#9DC3C0" transform="translate(139.414214, 75.500000) scale(-1, 1) rotate(219.000000) translate(-139.414214, -75.500000) "></path>
            <path d="M17.414386,63.0000526 C17.414386,63.0000526 15.566137,62.9656564 14.335369,64.6560318 C13.1042784,66.3460764 15.5771059,68.2388603 16.6846358,67.9752662 C17.791843,67.7116722 19.3271576,65.5318122 18.9384091,64.4036826 C18.5499832,63.2758838 17.414386,63.0000526 17.414386,63.0000526" id="Fill-11-Copy" fill="#9DC3C0" transform="translate(16.500000, 65.500000) scale(-1, 1) rotate(112.000000) translate(-16.500000, -65.500000) "></path>
            <path d="M1356,45 L1380,45 C1380,45 1375.74716,36.0980286 1367.93198,36.0011072 C1361.0925,35.9167634 1357.03162,40.6666517 1356,45" id="Fill-1" fill="#85AFAC"></path>
            <path d="M79,26 C79,26 74.7471588,17.0980286 66.9319849,17.0011072 C60.0924994,16.9167634 56.0316195,21.6666517 55,26 L79,26 Z" id="Fill-1-Copy-10" fill="#85AFAC"></path>
            <path d="M1156,66 L1173,66 C1173,66 1169.98719,60.064944 1164.45211,60.0007462 C1159.60732,59.944205 1156.73057,63.1110996 1156,66" id="Fill-3" fill="#85AFAC"></path>
        </g>
    </g>
</svg>