<?xml version="1.0" encoding="utf-8"?>
<!-- Generator: Adobe Illustrator 24.1.2, SVG Export Plug-In . SVG Version: 6.00 Build 0)  -->
<svg version="1.1" id="Capa_1" xmlns="http://www.w3.org/2000/svg" xmlns:xlink="http://www.w3.org/1999/xlink" x="0px" y="0px"
	 viewBox="0 0 160 160" style="enable-background:new 0 0 160 160;" xml:space="preserve">
<style type="text/css">
	.st0{fill:#FFFFFF;}
	.st1{fill:#5D9E9B;}
	.st2{fill:#4F3422;}
	.st3{fill:#FFD9C0;}
	.st4{fill:#222222;}
	.st5{fill:#F7AB3E;}
</style>
<g>
	<circle class="st0" cx="80" cy="80" r="78.5"/>
</g>
<g>
	<path class="st1" d="M23.5,134.5c14.3,14.8,34.3,24,56.5,24c25.2,0,47.7-11.9,62-30.4c-12-6.5-24.4-9.7-33.4-11.9
		c-8.4-2-44.9,1.6-44.9,1.6C46,123.7,33,129.5,23.5,134.5z"/>
</g>
<g>
	<path class="st2" d="M53.8,81c0,0-3-1.1-4.4-5.3s-0.1-5.9-2.5-7.3s-5.7-5.5-3.5-10.2s4.3-3.6,2-6.6c-2.4-3.1-2.8-7.2-1.2-10.8
		c1.6-3.9,4.6-4.7,6.6-4.5c1.2,0.1,1.7,0.5,3.1-3.4s8-8,11.4-7.5s5.6,1.6,6.9,3c0.5,0.5,1.4,2.3,3,0.5s5.2-6.6,10.5-5.5
		c3.1,0.6,6.7,1.8,8,4.7c0.5,1.2,1.4,2.2,2.7,2c0.1,0,0.2,0,0.3-0.1c2.5-0.6,7.5-1.2,11.6,2.6s3.5,7.3,2.5,9.5c-0.2,0.5-1.3,2,0.3,2
		s6,0,7.5,5.3c1.7,6.2-1.4,9-1.4,9c-0.4,0.3-0.5,1-0.1,1.4c0.1,0.1,0.7,0.6,0.8,0.7c1.4,1.4,3.1,6.5-0.5,11.6
		c-0.8,1.5-0.9,3.3,0,4.8c2.2,3.8-2.5,14.8-16.8,14.3l-3.9-19.4L53.8,81z"/>
</g>
<g>
	<circle class="st3" cx="104" cy="83.3" r="8.7"/>
</g>
<g>
	<path class="st3" d="M52.9,62.2c0,0,0,25.8,1.2,34.3c0.6,4,2.4,9.1,9.7,13.2c0,0,0.2,8,1,16.2L79.4,140l23.5-21.8v-45
		c0,0,3.5-26.1-5.6-27.7s-37.3-1-37.3-1S53.3,41.6,52.9,62.2z"/>
</g>
<g>
	<path class="st2" d="M49.2,57.7c0,0,6.7,5,11.9,0c4.1-3.9,3.3-6,3.6-8.3c0.1-1.4,1-2.6,2.4-2.9c1.9-0.5,3.1,0.2,4.2,2.4
		c1.3,2.7,3.8,7.1,7.9,3.9s4.7-6,7-5.1s3,4.2,3,6.1c0,1.9,1.6,3.5,3.5,3.4c0.8,0,1.5-0.3,2.1-0.8c3.4-2.2,5.1-2.5,5.7-1.7
		s-2.2,2-2.8,5.8c-0.6,3.8,2.8,5.6,5.5,5.5c0,0-4.3,7-0.4,8.7L109,69l-4-19.4l-7.3-12.2l-20.2-0.8l-19.8,0.8l-5.5,5L49.2,57.7z"/>
</g>
<g>
	<path class="st2" d="M90.2,66.5c-2.1-1.2-4.6-1.7-7.1-1.5c-2,0.1-5.7,0.7-5.8,3.1c0,0,0,0.1,0,0.2c0,0.3,0.1,0.5,0.2,0.8
		c0.7,0.7,1.6,1,2.5,0.8c1.4-0.1,2.8-0.4,4.3-0.4s3,0.4,4.5,0.3c0.9,0,1.7-0.4,2.2-1.1C91.6,67.8,90.9,67,90.2,66.5z M86.6,66.3
		L86.6,66.3L86.6,66.3z"/>
</g>
<g>
	<path class="st2" d="M66.8,67.1c-2.2-1-4.7-1.3-7.2-0.8c-2,0.3-5.6,1.2-5.5,3.6c0,0,0,0.1,0,0.2c0,0.3,0.1,0.5,0.3,0.7
		c0.7,0.6,1.7,0.9,2.6,0.6c1.4-0.2,2.8-0.7,4.2-0.8s3,0.2,4.5,0c0.9-0.1,1.6-0.5,2.1-1.3C68.3,68.3,67.6,67.5,66.8,67.1z M63.2,67.3
		L63.2,67.3L63.2,67.3z"/>
</g>
<g>
	<circle class="st4" cx="83.7" cy="73.5" r="1.9"/>
</g>
<g>
	<circle class="st4" cx="61" cy="74.6" r="1.9"/>
</g>
<g>
	<path class="st5" d="M87.5,77.7h3.7c1.1,0,2,0.9,2,2l0,0c0,1.1-0.9,2-2,2h-3.7c-1.1,0-2-0.9-2-2l0,0C85.5,78.6,86.4,77.7,87.5,77.7
		z"/>
</g>
<g>
	<path class="st5" d="M56.8,78.6h3.7c1.1,0,2,0.9,2,2l0,0c0,1.1-0.9,2-2,2h-3.7c-1.1,0-2-0.9-2-2l0,0C54.8,79.5,55.7,78.6,56.8,78.6
		z"/>
</g>
<g>
	<path class="st4" d="M110.1,82.7c-0.2,0-0.4-0.1-0.4-0.3c-0.4-2.4-2.3-4.2-4.7-4.6c-0.2,0-0.4-0.3-0.4-0.5s0.3-0.4,0.5-0.4
		c2.7,0.4,4.9,2.5,5.4,5.3C110.6,82.4,110.4,82.7,110.1,82.7C110.2,82.7,110.2,82.7,110.1,82.7z"/>
</g>
<g>
	<path class="st4" d="M71.7,87.2c-0.5,0-1-0.1-1.4-0.5c-0.5-0.6-0.5-1.5,0-2.8c1.6-3.8-0.3-12.1-0.3-12.2c-0.1-0.2,0.1-0.5,0.3-0.5
		c0.2-0.1,0.5,0.1,0.5,0.3c0.1,0.4,2,8.7,0.2,12.7c-0.4,0.9-0.5,1.6-0.2,1.9c0.4,0.4,1.6,0.1,2.1-0.1c0.2-0.1,0.5,0,0.5,0.2
		c0.1,0.2,0,0.5-0.2,0.5C73.2,86.9,72.4,87.2,71.7,87.2z"/>
</g>
<g>
	<g>
		<path class="st4" d="M85.9,153.3c-1.3,0-2.4-1.1-2.4-2.4s1.1-2.4,2.4-2.4s2.4,1.1,2.4,2.4S87.2,153.3,85.9,153.3z M85.9,149.3
			c-0.9,0-1.6,0.7-1.6,1.6s0.7,1.6,1.6,1.6s1.6-0.7,1.6-1.6S86.8,149.3,85.9,149.3z"/>
	</g>
</g>
<g>
	<g>
		<path class="st4" d="M93,148.7L93,148.7c-0.1,0-0.2-0.1-0.3-0.2c-5.3-7.5-11.2-8-11.2-8c-0.2,0-0.4-0.2-0.3-0.4s0.2-0.4,0.4-0.3
			c0.3,0,6.1,0.5,11.5,7.9c2.3-2.6,16.1-18.4,23.4-26.6c0.1-0.2,0.4-0.2,0.5,0c0.2,0.1,0.2,0.4,0,0.5c-7.9,9-23.6,26.8-23.8,27
			C93.2,148.6,93.1,148.7,93,148.7z"/>
	</g>
</g>
<g>
	<g>
		<path class="st4" d="M67.8,148.5c-0.1,0-0.2,0-0.2-0.1c-5.5-4.4-10.6-9.3-15.2-14.6c-0.1-0.2-0.1-0.4,0-0.5c0.2-0.1,0.4-0.1,0.5,0
			c4.5,5.1,9.5,9.9,14.8,14.2c5.4-7.5,9-7.8,9.2-7.8s0.4,0.1,0.4,0.3s-0.1,0.4-0.3,0.4c-0.1,0-3.6,0.4-8.8,7.8
			C68,148.4,67.9,148.5,67.8,148.5L67.8,148.5z"/>
	</g>
</g>
<g>
	<path class="st4" d="M74.7,93.6c-1.7,0-2.9-1.3-3.4-2.2c-0.1-0.2,0-0.5,0.2-0.6s0.5,0,0.6,0.2c0.1,0.1,1.3,2.4,3.6,1.5
		c0.1,0,2-0.6,2-3.3c0-0.2,0.2-0.4,0.4-0.4s0.4,0.2,0.4,0.4c0,3.4-2.5,4.1-2.6,4.1C75.6,93.5,75.1,93.6,74.7,93.6z"/>
</g>
<g>
	<path class="st4" d="M79.1,140.5c-0.2,0-0.4,0.2-0.4,0.4L78,158.5c0.2,0,0.5,0,0.7,0l0.7-17.6C79.4,140.7,79.3,140.5,79.1,140.5z"
		/>
</g>
</svg>
