<?xml version="1.0" encoding="utf-8"?>
<!-- Generator: Adobe Illustrator 24.1.2, SVG Export Plug-In . SVG Version: 6.00 Build 0)  -->
<svg version="1.1" id="Capa_1" xmlns="http://www.w3.org/2000/svg" xmlns:xlink="http://www.w3.org/1999/xlink" x="0px" y="0px"
	 viewBox="0 0 160 160" style="enable-background:new 0 0 160 160;" xml:space="preserve">
<style type="text/css">
	.st0{fill:#FFFFFF;}
	.st1{fill:#333333;}
	.st2{fill:#FFD9C0;}
	.st3{fill:#383838;}
	.st4{fill:#F7AB3E;}
	.st5{fill:#545454;}
	.st6{fill:#222222;}
</style>
<g>
	<circle class="st0" cx="80" cy="80" r="78.5"/>
</g>
<g>
	<path class="st1" d="M97.6,119.6c-18.3,8.4-31.1,1.4-31,1.4c-16.4,3.8-32.5,11.6-40.6,15.9c14.1,13.4,33.1,21.6,54,21.6
		c21.8,0,41.5-8.9,55.7-23.2C118.3,122.9,97.6,119.6,97.6,119.6z"/>
</g>
<g>
	<path class="st2" d="M48.8,55.3l0.9,31.2c0,0,1.8,21,13.5,24c0,0,3.3,3,2.3,13c0,0,17,6.5,34.3-1.5l-1.4-48c0,0,1.2-24.8-16.7-26.9
		S49.4,46.1,48.8,55.3z"/>
</g>
<g>
	<path class="st3" d="M77,49.2c4.3-0.9,1.1-0.3,4.4,3.4s4.8,3.1,8,3.7s2,5.5,2,5.5c-0.8,6.7,3.1,16.5,3.1,16.5l10.4,0.3
		c1.4-8.2,2.2-22.2,2.2-22.2c-0.5-4.5-2.1-8.7-4.9-12.3c-4.5-5.9-9.6-7.8-12.2-7.2s-3.1,0.4-6.5-1.8c-3.9-2.5-9.9-1.7-12.9-2.1
		c-1.5-0.1-3.1-0.4-4.5-0.8c-2.4-1-7.2-2.8-8.9-5.2c-1.5-2.2-4.1-0.8-3.5,3.4c0.1,1.1-0.9-1.6-1.9-2.3c-1.8-1.4-4.4,2.7-5.5,5.4
		s-2.8,5-3.2,11.7c-0.5,7.2,5.8,10.2,8.8,9.5L77,49.2z"/>
</g>
<g>
	<path class="st1" d="M61.6,67c-2.2-1-4.7-1.3-7.1-1c-2,0.2-5.7,0.8-5.7,3v0.1c0,0.2,0.1,0.5,0.2,0.7c0.7,0.6,1.7,0.8,2.6,0.6
		c1.4-0.1,2.8-0.5,4.3-0.6s3,0.3,4.5,0.1c0.8,0,1.6-0.4,2.2-1C63,68.1,62.3,67.4,61.6,67z M58,67L58,67L58,67z"/>
</g>
<g>
	<path class="st1" d="M83.1,67.1c-2.2-1.1-4.6-1.6-7-1.4c-2,0.1-5.7,0.5-5.9,2.6v0.1c0,0.2,0,0.5,0.2,0.7c0.7,0.6,1.6,0.9,2.5,0.8
		c1.4,0,2.9-0.3,4.3-0.3s3,0.4,4.5,0.4c0.8,0.1,1.7-0.3,2.2-0.9C84.5,68.3,83.9,67.6,83.1,67.1z M79.5,66.9L79.5,66.9L79.5,66.9z"/>
</g>
<g>
	<path class="st4" d="M82.2,76.6h3.7c1.1,0,2,0.9,2,2l0,0c0,1.1-0.9,2-2,2h-3.7c-1.1,0-2-0.9-2-2l0,0C80.2,77.5,81.1,76.6,82.2,76.6
		z"/>
</g>
<g>
	<path class="st4" d="M51.5,77.8h3.7c1.1,0,2,0.9,2,2l0,0c0,1.1-0.9,2-2,2h-3.7c-1.1,0-2-0.9-2-2l0,0C49.5,78.7,50.4,77.8,51.5,77.8
		z"/>
</g>
<g>
	<circle class="st2" cx="99.8" cy="80.3" r="8.5"/>
</g>
<g>
	<path class="st5" d="M63,102.6C63.1,102.6,63.1,102.5,63,102.6C62.9,102.5,62.9,102.6,63,102.6z"/>
</g>
<g>
	<polygon class="st5" points="92.8,78.9 92.8,73 94.4,73.1 96.4,81 	"/>
</g>
<g>
	<path class="st5" d="M94.4,75.2c-0.2-0.4-0.6-0.5-1-0.3C93.2,75,93,75.2,93,75.5c-0.3,2.2-0.2,4.4-0.3,6.7c-0.2,5-1.3,10-4.8,13.9
		c-2.8,3.1-6.5,4.5-10.2,6c-1-6.8-3.5-14.4-11.5-14c-2.4,0.1-5.6,0.9-7,3.1c-1.6,2.7-1.2,7.4-0.5,10.6v0.1l-1-0.7
		c-2.7-1.9-4.8-4.6-5.9-7.7c-0.6-2.8-0.9-5.6-1.3-8.4l0,0c-0.2-1.2-0.5-2.4-0.9-3.6c-0.1,1.4-0.1,2.7,0,3.6c0,0.1,0,0.1,0,0.2
		c0.3,7.9,1.7,16.7,7.9,22.3s15.2,5.7,23,4.5c7.5-1.3,14.6-4,16.6-12.2C98.8,92.1,97.6,82.4,94.4,75.2z M67.4,99.9
		c-1.3,0-2.1,0.2-3.1,0.5c-0.7,0.2-1.3,0.5-2.2,1l-0.2,0.1c-0.4-1.7-0.6-3.4-0.5-5.1c0.1-4.7,4.6-6.9,8.3-4.2c3,2.2,3.9,5.6,4.4,9.1
		C72.2,100.1,69.2,99.9,67.4,99.9z"/>
</g>
<g>
	<path class="st6" d="M106.2,79.6c-0.2,0-0.4-0.2-0.4-0.4c-0.4-2.3-2.3-4.2-4.7-4.5c-0.2,0-0.4-0.3-0.4-0.5s0.3-0.4,0.5-0.4
		c2.8,0.4,5,2.6,5.5,5.3C106.7,79.4,106.5,79.6,106.2,79.6L106.2,79.6z"/>
</g>
<g>
	<path class="st6" d="M65.7,86.6c-0.7,0-1.9-0.1-2.6-1c-0.7-0.9-0.7-2.2,0-4c1.5-3.8,0.2-11.7,0.2-11.8c0-0.2,0.1-0.5,0.3-0.5
		s0.5,0.1,0.5,0.3c0.1,0.3,1.4,8.2-0.2,12.2c-0.6,1.5-0.6,2.5-0.1,3.2c0.7,0.9,2.4,0.7,2.4,0.7c0.2,0,0.4,0.1,0.5,0.4
		C66.7,86.1,66.8,86.6,65.7,86.6z"/>
</g>
<g>
	<path class="st6" d="M66.2,96.3c-1.6-0.1-2.8-1.2-3-2.8c0-0.2,0.1-0.4,0.4-0.5c0.2,0,0.3,0.1,0.4,0.4c0.3,1.1,1.1,2.1,2.4,2
		c0.9,0,2.1-0.4,2.3-2.3c0-0.2,0.2-0.4,0.4-0.4c0.2,0,0.4,0.2,0.4,0.4C69.5,93.2,69.3,96.5,66.2,96.3z"/>
</g>
<g>
	<path class="st6" d="M78.9,72c0.6,0.5,1.4,1.6,1.5,3.7c0,0.2-0.2,0.4-0.4,0.4c-0.3,0-0.4-0.2-0.4-0.4c-0.1-1.5-0.4-2.4-1.2-3
		c0,0-0.7-0.7-2.1-0.5c-1.6,0.3-2.7,1.2-2.6,3.4c0,0.3-0.1,0.6-0.4,0.6l0,0c-0.2,0-0.5-0.3-0.5-0.6c-0.3-2.1,1.1-4.1,3.3-4.3
		C76.1,71.3,77.6,71,78.9,72z"/>
</g>
<g>
	<path class="st6" d="M57.6,72c0.6,0.5,1.4,1.6,1.5,3.7c0,0.2-0.2,0.4-0.4,0.4c-0.3,0-0.4-0.2-0.4-0.4c-0.1-1.5-0.4-2.4-1.2-3
		c0,0-0.7-0.7-2.1-0.5c-1.6,0.3-2.7,1.2-2.6,3.4c0,0.3-0.1,0.6-0.4,0.6l0,0c-0.2,0-0.5-0.3-0.5-0.6c-0.3-2.1,1.1-4.1,3.3-4.3
		C54.8,71.3,56.3,71,57.6,72z"/>
</g>
</svg>
