<?xml version="1.0" encoding="utf-8"?>
<!-- Generator: Adobe Illustrator 24.1.2, SVG Export Plug-In . SVG Version: 6.00 Build 0)  -->
<svg version="1.1" id="Capa_1" xmlns="http://www.w3.org/2000/svg" xmlns:xlink="http://www.w3.org/1999/xlink" x="0px" y="0px"
	 viewBox="0 0 160 160" style="enable-background:new 0 0 160 160;" xml:space="preserve">
<style type="text/css">
	.st0{fill:#FFFFFF;}
	.st1{fill:#FFD86C;}
	.st2{fill:none;}
	.st3{fill:#4F3422;}
	.st4{fill:#FFD9C0;}
	.st5{fill:#222222;}
	.st6{fill:#F7AB3E;}
	.st7{fill:#282828;}
</style>
<circle class="st0" cx="80" cy="80" r="78.5"/>
<g>
	<path class="st1" d="M83.8,113.5c-24.5,3.4-45.3,12.9-59.9,21.4C38.1,149.4,58,158.5,80,158.5c23.9,0,45.3-10.7,59.7-27.5
		C105.9,107.5,83.8,113.5,83.8,113.5z"/>
</g>
<g>
	<circle class="st2" cx="80" cy="80" r="78.5"/>
</g>
<g>
	<path class="st3" d="M103.9,69.3c-2.3,0.2-4.6-0.5-6.9-0.6c-1.8,0-3.6,0.2-5.4,0.5c-10.8,1.3-21.9-2.4-32.5-0.1
		c-2.5,0.6-3,1.4-5.5,1.2s-5.1,0.5-7-2.8l0,0c-1.5-2.4-2.2-5.3-2-8.1c0.2-1.3,1.4-2.5,1.2-3.8c-0.2-0.9-1.9-0.1-3.5-2.3
		c-1.3-1.8-0.9-4.5,0.1-6.5c0.5-0.8,0.9-1.6,1.1-2.6c0.2-2-2-3.3-3.2-5c-1.1-1.6-0.9-3.6-0.6-5.6c0.7-4.9-1.6-13.6,15.5-12.1
		C72.6,23,69.4,22,77.5,22.8s9.7,6.4,12.2,7.9c2.5,1.5,7.2,2,10,2.5s5.5,2.2,6.5,4.8c0.3,0.9,0.8,2.8,0.9,3.8
		c1.3,9.2-1.1,18.7-3,27.8"/>
</g>
<g>
	<path class="st4" d="M48,44.9c-1.1,12.2-0.3,31.9,2,48.6s13,17.9,13,17.9s4.2,2.3,3.3,9.4c3,1.2,6.1,2,9.4,2.5
		c0.8,0.1,1.7,4.1,2.5,4.2s2.5-3.5,3.4-3.5c6.4,0.1,13.2-1.5,20.7-6.6l-3.3-55c0,0-2.5-22.3-16-23.1s-29.4,0-29.4,0
		S48.5,39.8,48,44.9z"/>
</g>
<g>
	<circle class="st4" cx="101.1" cy="77.4" r="8.5"/>
</g>
<g>
	<path class="st3" d="M83.4,62.3c-2.1-1.3-4.5-1.9-7-1.7c-2,0.1-5.7,0.5-5.9,2.9c0,0,0,0.1,0,0.2c0,0.3,0,0.5,0.2,0.8
		c0.6,0.7,1.6,0.9,2.5,0.9c1.4,0,2.9-0.3,4.3-0.3s3,0.5,4.5,0.5c0.9,0.1,1.7-0.3,2.2-1C84.8,63.7,84.1,62.8,83.4,62.3z M79.8,62
		L79.8,62L79.8,62z"/>
</g>
<g>
	<path class="st3" d="M60.2,62.2c-2.1-1.2-4.6-1.8-7-1.6c-2,0.1-5.7,0.6-5.8,3c0,0,0,0.1,0,0.2c0,0.3,0.1,0.5,0.2,0.8
		c0.6,0.7,1.6,1,2.5,0.9c1.4,0,2.8-0.4,4.3-0.4s3,0.5,4.5,0.4c0.9,0.1,1.7-0.3,2.2-1C61.7,63.6,61,62.7,60.2,62.2z M56.7,62L56.7,62
		L56.7,62z"/>
</g>
<g>
	<circle class="st5" cx="77.1" cy="68.7" r="1.9"/>
</g>
<g>
	<circle class="st5" cx="54.2" cy="68.9" r="1.9"/>
</g>
<g>
	<path class="st3" d="M45.8,38.9c0,0,3.7,7.1,15.9,6.5s14.1-3.2,21.6,1.1s10.3,3,11.9,10.8S97,68.7,97,68.7l7.1,0.9
		c0,0,2.5-18.6-4.7-25.2S79,33.1,79,33.1L45.8,38.9z"/>
</g>
<g>
	<path class="st6" d="M81.8,73.1h3.7c1.1,0,2,0.9,2,2l0,0c0,1.1-0.9,2-2,2h-3.7c-1.1,0-2-0.9-2-2l0,0C79.8,74,80.7,73.1,81.8,73.1z"
		/>
</g>
<g>
	<path class="st6" d="M50,73.1h3.7c1.1,0,2,0.9,2,2l0,0c0,1.1-0.9,2-2,2H50c-1.1,0-2-0.9-2-2l0,0C48,74,48.9,73.1,50,73.1z"/>
</g>
<g>
	<path class="st3" d="M48.6,82.5c1.9,2.3,4.8,4.3,7.7,4.9c4.9,1.1,6.1-6.3,15-2.5C81.6,89.2,88.6,85,92.4,81s4.4-13.9,4.4-13.9
		l2.4-0.3c0,0,3,29.2-2.2,36.9s-32.1,15.2-41,4.3C48,98.2,48.6,82.5,48.6,82.5z"/>
</g>
<g>
	<path class="st7" d="M105.1,69c-0.1,0-0.1,0-0.2,0l-15.5-3.6c-0.5-0.1-0.8-0.6-0.6-1c0.1-0.5,0.6-0.8,1-0.6l15.5,3.6
		c0.5,0.1,0.8,0.6,0.6,1C105.8,68.7,105.5,69,105.1,69z"/>
</g>
<g>
	<path class="st7" d="M59.8,71.6c-1.3,3.2-4.2,5.5-7.6,5.9c-4.1,0.3-7.9-2.2-9.2-6.2c-0.8-2.3-0.5-4.9,0.8-6.9
		c2.2-2.3,6.1-2.6,6.1-2.6C55.5,61.4,58,64,58,64C60.2,65.8,60.9,68.9,59.8,71.6z M85.9,71.3c-1.3,3.9-5.1,6.5-9.2,6.2
		c-3.4-0.4-6.4-2.6-7.6-5.9c-1.1-2.7-0.4-5.8,1.8-7.7c0,0,2.5-2.6,8.1-2.2c0,0,4,0.3,6.2,2.6C86.4,66.4,86.7,69,85.9,71.3z
		 M89.6,64.5c-0.1-1.3-0.8-1.1-0.8-1.1c-1.1,0-2.3-0.2-3.3-0.6c-1.9-1.1-4-1.7-6.1-1.9c-3.7-0.3-7.3,0.6-10.4,2.7
		c-0.4,0.4-1.1,0.5-1.6,0.2c-0.9-0.3-1.9-0.3-2.8-0.3c-1-0.1-2,0-2.9,0.3c-0.5,0.3-1.2,0.2-1.6-0.2c-3.1-2.1-6.7-3-10.4-2.7
		c-2.2,0.2-4.2,0.9-6.1,1.9c-1.1,0.4-2.2,0.6-3.3,0.6c0,0-0.7-0.3-0.8,1.1c-0.1,0.4,0.1,0.8,0.5,1c0.1,0,0.2,0,0.2,0s1.2,0.3,1.3,2
		s0.9,5.2,2.1,6.6s3.7,4.7,9.1,4.3c3.8-0.6,7.1-3,8.7-6.6c0.5-1.3,0.9-2.6,1-4c0-0.4-0.1-0.9-0.3-1.3c-0.3-0.4,0.1-1.1,0.4-1.2
		s2.3-0.2,2.3-0.2s2,0.2,2.3,0.2s0.7,0.8,0.4,1.2c-0.2,0.4-0.3,0.8-0.3,1.3c0.1,1.4,0.5,2.7,1,4c1.6,3.5,4.8,6,8.7,6.6
		c5.4,0.4,7.9-2.9,9.1-4.3s1.9-4.9,2.1-6.6s1.3-2,1.3-2c0.4,0,0.7-0.4,0.7-0.8C89.7,64.6,89.7,64.5,89.6,64.5z"/>
</g>
<g>
	<path class="st0" d="M78.2,127.4l5.4-7.1c0,0,16.4-5.8,18.7-7.5s2.2,6.6,2.2,6.6S90.3,129.2,78.2,127.4z"/>
</g>
<g>
	<path class="st0" d="M78.2,127.4l-2.8-6.3c0,0-8-3.8-10.3-5.4c-2.3-1.6-2,4.6-2,4.6S69.4,128.1,78.2,127.4z"/>
</g>
<g>
	<path class="st0" d="M66.5,91.3c-2.2,0-3.3-1.8-3.5-2.8c0-0.2,0.1-0.5,0.3-0.5c0.2-0.1,0.5,0.2,0.5,0.3c0,0.1,0.6,2.1,2.7,2.1
		c1,0,2.2-0.3,2.9-2.5c0.1-0.2,0.3-0.3,0.5-0.3c0.3,0.1,0.4,0.3,0.3,0.5C69.6,90.3,68.4,91.3,66.5,91.3z"/>
</g>
<g>
	<path class="st5" d="M65.8,81.8c-1,0-1.8-0.3-2.2-0.8c-0.9-1-0.4-2.6-0.3-2.7c1.1-4.5-0.3-12.8-0.3-12.9c0-0.2,0.1-0.4,0.4-0.5
		c0.2,0,0.4,0.1,0.5,0.4c0.1,0.3,1.4,8.6,0.2,13.3c0,0-0.4,1.2,0.2,1.9c0.4,0.5,1.4,0.6,2.7,0.4c0.2,0,0.5,0.1,0.5,0.3
		c0,0.2-0.1,0.5-0.3,0.5C66.7,81.8,66.2,81.8,65.8,81.8z"/>
</g>
<g>
	<path class="st5" d="M107.3,76.7c-0.2,0-0.4-0.2-0.4-0.4c-0.4-2.3-2.3-4.2-4.7-4.5c-0.2,0-0.4-0.3-0.4-0.5c0-0.3,0.3-0.4,0.5-0.4
		c2.8,0.4,5,2.5,5.5,5.3C107.8,76.5,107.6,76.7,107.3,76.7L107.3,76.7z"/>
</g>
</svg>
