<?xml version="1.0" encoding="utf-8"?>
<!-- Generator: Adobe Illustrator 24.1.2, SVG Export Plug-In . SVG Version: 6.00 Build 0)  -->
<svg version="1.1" id="Capa_1" xmlns="http://www.w3.org/2000/svg" xmlns:xlink="http://www.w3.org/1999/xlink" x="0px" y="0px"
	 viewBox="0 0 160 160" style="enable-background:new 0 0 160 160;" xml:space="preserve">
<style type="text/css">
	.st0{fill:#FFFFFF;}
	.st1{fill:#272828;}
	.st2{fill:#FAF3E8;}
	.st3{fill:#FFD9C0;}
	.st4{fill:#F7AB3E;}
	.st5{fill:#5D9E9B;}
	.st6{fill:#222222;}
</style>
<g>
	<circle class="st0" cx="80" cy="80" r="78.5"/>
</g>
<g>
	<path class="st1" d="M59.5,94.9l-0.8,31.7L31.2,129c3.2-7,7.6-13.5,12.8-19.1c8.3-8.9,10.6-12.6,10.6-12.6
		c-2-7.6-4.1-23.1-4.1-23.1c-2.9-27.2,10.8-37,10.8-37c18.7-11.3,36.6-6.4,45.1,0.2c5.5,4.3,5.5,8.3,5.5,21.3"/>
</g>
<g>
	<path class="st2" d="M60.9,119.1c-9.3,0-22,2.9-34.2,9.3l0,0c-2.1,0.8-4.2,1.8-6.2,2.8c14.4,16.7,35.7,27.4,59.5,27.4
		c15.5,0,30-4.5,42.1-12.3C115.9,137.4,98.6,119.1,60.9,119.1z"/>
</g>
<g>
	<path class="st3" d="M58.3,64.6l-0.2,57.7c0,0,15.9,9,33.3,2.9c0,0,0.3-5.3,0.7-7.1c0.6-3,2.8-5.6,7.8-8.5
		c6.4-3.7,8.5-6.7,10.2-17.3c1.5-10.1,1-27.6,1-27.6s2.2-25.8-15.8-27.8S59.3,39.6,58.3,64.6z"/>
</g>
<g>
	<path class="st1" d="M83.8,67.1c-1.5-0.4-3-0.7-4.5-0.7c-2.1,0-6.9,0.3-6.9,2.4c0,0,0,0.1,0,0.2c0,0.3,0.2,0.6,0.7,0.9
		c1.2,0.6,2.9,0.2,4.2,0c1-0.1,2-0.2,3-0.1c0.9,0,1.8,0.2,2.7,0.2c1.1,0,2.6-0.1,3-1S84.8,67.4,83.8,67.1z M81.3,67.4L81.3,67.4z"/>
</g>
<g>
	<path class="st1" d="M108,68.5c-1.5-0.4-3-0.7-4.5-0.7c-2.1,0-6.8,0.3-6.9,2.4c0,0.1,0,0.1,0,0.1c0,0.3,0.3,0.7,0.8,1
		c1.2,0.6,2.9,0.2,4.2,0c1-0.1,2-0.2,2.9-0.1c0.9,0,1.8,0.2,2.7,0.2c1.1,0,2.6-0.1,2.9-1S109,68.8,108,68.5z M105.5,68.7L105.5,68.7
		z"/>
</g>
<g>
	<path class="st1" d="M92.1,39.2c0.2,0.6,13.7,28.2,19.3,31.6c0,0,3.3-22.3-1.6-29.3S92.1,34,92.1,34V39.2z"/>
</g>
<g>
	<path class="st1" d="M93.5,37.7c0,0-17.2,34.3-38.6,36.4c0,0-2.2-25.5,11.7-34.8c5.6-3.8,13.7-6.9,26.8-3.7L93.5,37.7z"/>
</g>
<g>
	<path class="st4" d="M69.7,77.7h3.6c1.1,0,2,0.9,2,2l0,0c0,1.1-0.9,2-2,2h-3.6c-1.1,0-2-0.9-2-2l0,0C67.7,78.6,68.6,77.7,69.7,77.7
		z"/>
</g>
<g>
	<path class="st4" d="M104.3,78.3h3.6c1.1,0,2,0.9,2,2l0,0c0,1.1-0.9,2-2,2h-3.6c-1.1,0-2-0.9-2-2l0,0
		C102.3,79.2,103.2,78.3,104.3,78.3z"/>
</g>
<g>
	<circle class="st3" cx="57.1" cy="77.7" r="8.5"/>
</g>
<g>
	<path class="st1" d="M55.6,106.3c7.3-9.1,9.7-21.4,14.6-31.8c2.8-6.1,7-10.9,10.8-16.4c3.7-5.4,6.8-11.2,9.3-17.2
		c0.4-1-1.1-1.5-1.6-0.5c-2.8,6.7-6.3,13.1-10.5,19c-3.1,4.4-6.2,8.5-8.5,13.4c-5.1,11-8.2,22.7-14.3,33.3c0,0.1,0,0.2,0,0.2
		C55.4,106.4,55.5,106.3,55.6,106.3L55.6,106.3z"/>
</g>
<g>
	<path class="st1" d="M117.7,112.4c2.1-11.4-4.4-22-7.7-32.5c-3.3-10.6-3.3-22-8.6-32c-0.4-0.8-1.6-0.2-1.2,0.6
		c5.1,9.6,5.3,20.6,8.4,30.9c3.4,11.2,8.8,21,8.8,33C117.5,112.4,117.5,112.5,117.7,112.4L117.7,112.4L117.7,112.4z"/>
</g>
<g>
	<path class="st5" d="M135.4,59.8l-42.9-1.5l2.8-2.5c0,0,24.7-1.7,40.1-1.6c0,0,6.4,0,5.9,3.1C140.8,60.2,135.4,59.8,135.4,59.8z"/>
</g>
<g>
	<path class="st5" d="M50.2,57.3l63,1.5c0,0,4.2-22.2-12.4-28.4S51.9,27.7,50.2,57.3z"/>
</g>
<g>
	<path class="st6" d="M92.5,88.7c-1.2,0-2.6-0.6-2.8-0.7c-0.2-0.1-0.3-0.4-0.2-0.6c0.1-0.2,0.4-0.3,0.6-0.2c1,0.5,2.7,0.9,3.2,0.5
		c0.3-0.2,0.3-0.8,0-1.7C91.7,81.8,93,73.8,93,73.5c0-0.2,0.3-0.4,0.5-0.4s0.4,0.3,0.4,0.5c0,0.1-1.3,8.1,0.1,12.1
		c0.4,1.2,0.3,2.1-0.2,2.6C93.4,88.6,93,88.7,92.5,88.7z"/>
</g>
<g>
	<path class="st6" d="M50.9,76.9C50.8,76.9,50.8,76.9,50.9,76.9c-0.3,0-0.5-0.3-0.4-0.5c0.5-2.7,2.7-4.8,5.4-5.3
		c0.2,0,0.4,0.1,0.5,0.4S56.2,72,56,72c-2.4,0.4-4.3,2.2-4.7,4.6C51.2,76.8,51.1,76.9,50.9,76.9z"/>
</g>
<g>
	<path class="st6" d="M99.5,77.4c-0.2,0-0.4-0.1-0.5-0.4c-0.2-1,0.1-2.1,0.7-2.9s1.5-1.5,2.5-1.6c2-0.3,2.9,0.8,2.9,0.8
		c0.9,0.8,1.4,2,1.4,3.6c0,0.2-0.2,0.4-0.4,0.4c-0.3,0-0.4-0.2-0.4-0.4c0-1.4-0.4-2.4-1.1-3c-0.4-0.4-0.9-0.7-2.2-0.6
		c-0.8,0.1-1.5,0.6-2,1.2s-0.6,1.5-0.5,2.3C99.9,76.8,100,77.3,99.5,77.4z"/>
</g>
<g>
	<path class="st6" d="M81.6,72.4c0.9,0.8,1.4,2,1.4,3.6c0,0.2-0.2,0.4-0.4,0.4c-0.2,0-0.4-0.2-0.4-0.4c0-1.4-0.4-2.4-1.1-3
		c-0.8-0.7-1.7-0.6-2-0.6h-0.2c-1.7,0.3-2.8,1.9-2.6,3.5c0,0.4-0.1,0.6-0.4,0.6c0.1,0,0.2,0,0.1,0c-0.2,0-0.4-0.1-0.5-0.4
		c-0.3-2.1,1.1-4.1,3.2-4.5C79.4,71.5,80.4,71.4,81.6,72.4z"/>
</g>
<g>
	<path class="st6" d="M88.2,95.5c-0.2,0-0.3,0-0.3,0c-1-0.1-1.7-0.5-2.2-1.2c-0.9-1.2-0.7-2.7-0.7-2.8c0-0.2,0.2-0.4,0.5-0.4
		c0.2,0,0.4,0.2,0.4,0.5c0,0-0.2,1.3,0.5,2.2c0.4,0.5,0.9,0.8,1.7,0.9c0.1,0,1.8,0.2,2.5-2c0.1-0.2,0.3-0.4,0.5-0.3s0.4,0.3,0.3,0.5
		C90.7,95.2,88.9,95.5,88.2,95.5z"/>
</g>
</svg>
